<svg id="Calque_1" data-name="Calque 1" xmlns="http://www.w3.org/2000/svg" viewBox="0 0 632.61 632.55"><defs><style>.cls-1{fill:#fff;}</style></defs><title>logo_white</title><path class="cls-1" d="M620.64,229.91c-3.33-11.85-21.76-6.81-18.42,5.08a300,300,0,0,1-.93,166c-15.27,51.86-45.2,98.85-85,135.32-36.61,33.55-81.8,57-129.93,68.83-54.88,13.54-112.93,10.49-166.38-7.6-50.35-17-95.29-48.15-129.89-88.33,10-10.93,11.87-27.81,5.28-41.32a11.23,11.23,0,0,0-.68-1.34,12.61,12.61,0,0,0-.8-1.25,36.81,36.81,0,0,0-48.67-12.07c-17.69,9.55-22.47,32.51-13.32,49.47,8.14,15.09,26,20.78,41.65,16.45,35.71,42.76,82.5,75.1,134.72,94.47,54.13,20.07,113.5,23.88,170,12.85,50.46-9.84,97.79-32.7,137.77-64.85,42.15-33.9,74.22-79,94.43-129.06C636.35,368.54,639.29,296.22,620.64,229.91Z" transform="translate(0 0)"/><path class="cls-1" d="M486.37,160.55c-35.51-39-85-64.73-137.14-71.88a241.76,241.76,0,0,0-31.92-2.28c-12.32,0-12.32,19.06,0,19.11A210.78,210.78,0,0,1,527,295.34c.37,3.84.6,7.7.78,11.55.55,12.27,19.66,12.33,19.11,0A232.61,232.61,0,0,0,486.37,160.55Z" transform="translate(0 0)"/><path class="cls-1" d="M317.31,526.88A210.77,210.77,0,0,1,107.56,336.7c-.37-3.82-.59-7.65-.76-11.49-.54-12.27-19.65-12.32-19.11,0A232.69,232.69,0,0,0,147.46,471c35.52,39.39,85.24,65.47,137.72,72.72A241.53,241.53,0,0,0,317.31,546C329.63,546,329.63,526.93,317.31,526.88Z" transform="translate(0 0)"/><path class="cls-1" d="M287.9,253.9c-25.14,11.1-40.43,38.52-39.33,65.49,1.46,36.21,32,64.52,67.65,65.59a10.84,10.84,0,0,0,1.14,0,69.76,69.76,0,0,0,63.88-43.25c10.58-26,3.62-56.12-16.37-75.5C344.29,246.3,313.62,242.55,287.9,253.9Z" transform="translate(0 0)"/><path class="cls-1" d="M407.2,366.59a11.66,11.66,0,0,0-1.16,1.06,12.11,12.11,0,0,0-1,1.15,36.74,36.74,0,0,0-4.68,42.1A127.29,127.29,0,0,1,275,434.9c-46.58-16.14-79.47-60.9-82.83-109.68-.36-5.19-4.08-9.55-9.56-9.55-4.94,0-9.91,4.35-9.55,9.55a146.68,146.68,0,0,0,93.84,127c49.73,19.21,107.12,7.2,146.69-27.52,13.8,8,32.15,5.23,43.85-5.94,14.52-13.87,13.18-37.28-.14-51.23C443.78,353.38,421.26,354.27,407.2,366.59Z" transform="translate(0 0)"/><path class="cls-1" d="M176.8,267.41c13.86,14.52,37.27,13.18,51.23-.14,12-11.44,13.15-29.38,5.71-43.14A127.25,127.25,0,0,1,357.57,199.5c46.31,15.36,79.88,59.05,84.24,107.38.47,5.19,4,9.56,9.55,9.56,4.86,0,10-4.36,9.56-9.56a146.73,146.73,0,0,0-95.27-124.75c-49.41-18.35-106-6.2-145.07,28.15-13.36-7.76-31-5.45-42.76,4.85a9.74,9.74,0,0,0-1.17,1.05,12.23,12.23,0,0,0-1,1.16A36.79,36.79,0,0,0,176.8,267.41Z" transform="translate(0 0)"/><path class="cls-1" d="M12,402.65c3.33,11.85,21.77,6.81,18.43-5.08a300,300,0,0,1,.93-166c15.27-51.86,45.2-98.85,85-135.32C153,62.7,198.17,39.25,246.3,27.41,301.14,13.87,359.19,16.92,412.64,35,463,52,507.93,83.15,542.53,123.33c-9.95,10.93-11.88,27.81-5.28,41.32a11.23,11.23,0,0,0,.68,1.34,12.61,12.61,0,0,0,.8,1.25,36.81,36.81,0,0,0,48.67,12.07c17.69-9.55,22.47-32.51,13.32-49.47-8.14-15.09-26-20.78-41.65-16.45-35.71-42.76-82.5-75.1-134.73-94.47C370.21-1.14,310.85-4.95,254.33,6.08c-50.46,9.84-97.8,32.7-137.77,64.85C74.41,104.83,42.34,150,22.13,200-3.74,264-6.67,336.33,12,402.65Z" transform="translate(0 0)"/></svg>